<svg xmlns="http://www.w3.org/2000/svg" version="1.1" xmlns:xlink="http://www.w3.org/1999/xlink" xmlns:svgjs="http://svgjs.com/svgjs" width="2560.000000pt" height="2560.000000pt"><svg version="1.0" xmlns="http://www.w3.org/2000/svg" width="2560.000000pt" height="2560.000000pt" viewBox="0 0 2560.000000 2560.000000" preserveAspectRatio="xMidYMid meet">

<g transform="translate(0.000000,2560.000000) scale(0.100000,-0.100000)" fill="#000000" stroke="none">
<path d="M12415 22139 c-969 -49 -1927 -281 -2790 -677 -559 -256 -1004 -525
-1515 -913 -722 -549 -1370 -1266 -1867 -2067 -257 -414 -502 -912 -671 -1367
-71 -192 -146 -415 -140 -420 11 -11 601 -136 608 -128 4 4 24 60 45 123 219
671 583 1363 1034 1965 407 543 914 1050 1446 1446 927 691 1974 1138 3095
1323 1128 187 2270 96 3353 -265 666 -222 1320 -553 1872 -948 1012 -723 1804
-1663 2322 -2756 127 -268 198 -444 318 -787 21 -60 42 -108 47 -108 14 0 592
131 596 135 5 5 -90 291 -148 445 -167 443 -413 940 -663 1343 -701 1128
-1671 2056 -2817 2694 -1262 703 -2683 1034 -4125 962z"></path>
<path d="M12475 21149 c-625 -29 -1308 -164 -1895 -372 -1084 -386 -2026
-1018 -2797 -1877 -580 -647 -1055 -1461 -1333 -2287 l-48 -141 23 -6 c13 -3
178 -40 367 -81 188 -42 350 -78 359 -81 12 -3 30 34 82 174 98 265 158 402
287 657 371 731 868 1353 1515 1896 212 178 499 381 757 535 178 107 572 302
781 389 435 179 995 327 1457 384 284 36 367 42 655 48 924 19 1819 -173 2650
-570 468 -223 925 -520 1315 -853 160 -136 533 -512 670 -674 474 -562 839
-1197 1080 -1878 29 -83 35 -93 54 -88 12 2 179 39 371 81 193 42 355 78 362
80 13 4 -46 188 -130 405 -244 630 -626 1281 -1056 1800 -443 535 -943 984
-1509 1356 -1193 785 -2594 1170 -4017 1103z"></path>
<path d="M15649 17099 c-361 -18 -690 -114 -969 -283 -375 -228 -580 -515
-630 -884 -16 -113 -8 -336 15 -472 31 -179 112 -382 206 -522 50 -73 189
-220 277 -292 255 -208 568 -368 1134 -580 321 -120 354 -134 507 -211 354
-177 519 -352 576 -609 22 -99 17 -237 -12 -312 -102 -263 -454 -409 -943
-391 -331 12 -601 101 -833 275 -228 171 -378 391 -457 670 l-24 82 -245 -2
-246 -3 -3 -737 -2 -738 240 0 240 0 0 103 c0 101 7 144 36 224 l16 43 54 -35
c82 -53 257 -138 365 -178 406 -152 945 -200 1354 -121 511 99 937 396 1138
794 45 90 89 223 114 345 23 114 26 456 4 550 -118 525 -438 811 -1344 1199
-832 357 -1166 566 -1285 803 -52 105 -66 173 -60 295 4 87 9 106 41 172 86
173 312 305 604 352 123 19 369 20 498 0 318 -48 612 -228 744 -454 53 -92 96
-224 112 -345 l13 -97 241 2 240 3 3 678 2 677 -239 0 -238 0 -7 -31 c-3 -17
-6 -49 -6 -70 0 -40 -19 -139 -26 -139 -3 0 -51 22 -107 50 -315 153 -651 211
-1098 189z"></path>
<path d="M8130 16885 l0 -215 245 0 245 0 0 -2034 c0 -1845 -1 -2034 -16
-2040 -9 -3 -119 -6 -245 -6 l-229 0 0 -210 0 -210 1015 0 1015 0 0 210 0 210
-257 2 -258 3 -3 913 -2 912 1060 0 1060 0 -2 -912 -3 -913 -257 -3 -258 -2 0
-210 0 -210 1015 0 1015 0 0 210 0 210 -237 2 -238 3 -3 2037 -2 2038 242 2
243 3 3 213 2 212 -1020 0 -1020 0 2 -212 3 -213 263 -3 262 -2 0 -453 c0
-248 -3 -658 -7 -910 l-6 -457 -1056 2 -1056 3 -3 907 -2 908 262 2 263 3 0
210 0 210 -1017 3 -1018 2 0 -215z"></path>
<path d="M20085 16324 c-123 -28 -1411 -310 -1508 -330 -19 -4 -27 -10 -23
-20 13 -35 95 -466 102 -534 3 -41 11 -86 16 -100 27 -66 46 -949 29 -1290
-14 -279 -29 -454 -41 -495 -5 -16 -16 -77 -25 -135 -8 -58 -29 -178 -46 -268
-18 -89 -29 -165 -26 -168 7 -7 1674 -374 1699 -374 22 0 42 65 69 225 11 66
24 128 30 137 5 10 9 25 9 34 0 9 11 67 25 128 51 228 72 449 86 881 5 176 13
392 16 480 3 91 1 222 -6 305 -7 80 -16 237 -21 350 -15 346 -54 657 -101 825
-22 75 -72 286 -83 348 -8 46 -4 46 -201 1z"></path>
<path d="M5325 16298 c-8 -27 -24 -102 -35 -166 -11 -64 -25 -133 -30 -152
-22 -78 -69 -323 -84 -440 -20 -150 -36 -414 -36 -600 0 -90 -5 -153 -16 -190
-22 -79 -29 -349 -16 -569 7 -102 17 -278 23 -391 21 -419 63 -749 113 -902 8
-24 29 -110 46 -193 18 -82 34 -152 36 -154 2 -2 392 88 868 200 l865 203 -5
46 c-6 49 -46 265 -70 370 -8 36 -18 103 -23 150 -5 47 -14 103 -19 125 -40
164 -34 1485 8 1715 6 30 17 98 25 150 9 52 32 180 52 283 19 103 34 189 32
190 -2 2 -344 77 -759 167 -415 89 -801 173 -857 185 l-103 22 -15 -49z"></path>
<path d="M18385 12468 c-237 -661 -587 -1273 -1039 -1818 -363 -437 -828 -854
-1302 -1165 -1308 -861 -2881 -1164 -4424 -855 -490 99 -985 270 -1450 501
-266 133 -450 240 -678 395 -930 633 -1651 1491 -2110 2514 -66 148 -202 496
-202 518 0 6 -4 14 -10 17 -8 5 -712 -144 -757 -160 -9 -3 3 -49 41 -157 182
-517 414 -993 701 -1438 424 -657 997 -1269 1625 -1734 920 -683 1974 -1118
3090 -1275 788 -112 1650 -76 2413 100 917 211 1770 606 2526 1169 1092 813
1913 1940 2346 3222 43 127 43 128 22 133 -32 8 -741 165 -743 165 -1 0 -23
-60 -49 -132z"></path>
<path d="M5721 12274 c-156 -35 -286 -66 -289 -68 -11 -11 159 -487 254 -708
328 -768 737 -1427 1282 -2068 148 -173 650 -675 812 -811 774 -650 1526
-1089 2419 -1413 914 -332 1921 -488 2893 -448 1034 43 1960 263 2908 692
1155 523 2221 1389 2994 2433 491 664 877 1409 1136 2190 23 71 40 130 37 133
-4 4 -583 134 -598 134 -4 0 -24 -51 -44 -112 -489 -1481 -1473 -2766 -2800
-3654 -953 -638 -2079 -1042 -3225 -1158 -222 -23 -483 -36 -700 -36 -1384 0
-2783 427 -3925 1198 -1027 693 -1825 1587 -2381 2667 -161 314 -276 581 -389
910 -50 144 -66 180 -81 182 -11 0 -147 -28 -303 -63z"></path>
</g>
</svg><style>@media (prefers-color-scheme: light) { :root { filter: none; } }
</style></svg>