<svg xmlns="http://www.w3.org/2000/svg" version="1.1" xmlns:xlink="http://www.w3.org/1999/xlink" xmlns:svgjs="http://svgjs.com/svgjs" width="1195" height="1198"><svg xmlns="http://www.w3.org/2000/svg" width="1195" height="1198" viewBox="0 0 1195 1198" version="1.1"><path d="M 76.144 569.713 C 70.726 580.528, 68.578 583.889, 66.798 584.336 C 65.527 584.655, 58.876 585.646, 52.019 586.538 C 45.161 587.430, 39.153 588.406, 38.667 588.706 C 38.181 589.006, 42.818 594.300, 48.971 600.471 L 60.159 611.690 59.029 617.595 C 57.394 626.140, 55.038 640.301, 55.017 641.706 C 55.003 642.726, 62.446 639.194, 79.910 629.896 L 83.319 628.081 97.519 635.527 L 111.719 642.973 110.350 634.736 C 109.597 630.206, 108.463 622.999, 107.830 618.721 L 106.680 610.942 117.899 600.330 C 124.070 594.494, 128.754 589.357, 128.309 588.915 C 127.864 588.474, 123.450 587.620, 118.500 587.019 C 113.550 586.418, 106.764 585.460, 103.420 584.890 L 97.339 583.854 91.168 571.177 C 87.774 564.205, 84.588 557.863, 84.088 557.085 C 83.424 556.053, 81.278 559.465, 76.144 569.713 M 1103.409 569.720 C 1099.731 577.299, 1096.615 583.632, 1096.484 583.794 C 1096.353 583.956, 1089.553 585.028, 1081.373 586.177 C 1073.193 587.327, 1066.164 588.566, 1065.752 588.931 C 1065.341 589.296, 1069.954 594.483, 1076.002 600.457 C 1082.051 606.431, 1086.993 611.810, 1086.984 612.409 C 1086.976 613.009, 1085.854 619.800, 1084.491 627.500 C 1083.129 635.200, 1082.011 641.833, 1082.007 642.239 C 1082.003 642.646, 1088.419 639.631, 1096.263 635.539 L 1110.527 628.099 1124.893 635.617 C 1139.140 643.073, 1139.254 643.112, 1138.672 640.318 C 1138.349 638.768, 1137.100 631.635, 1135.897 624.466 L 1133.710 611.432 1144.873 600.534 C 1151.013 594.540, 1155.690 589.293, 1155.268 588.874 C 1154.846 588.455, 1150.450 587.620, 1145.500 587.019 C 1140.550 586.418, 1133.800 585.458, 1130.500 584.886 L 1124.500 583.846 1118.030 570.346 C 1114.471 562.921, 1111.230 556.642, 1110.827 556.393 C 1110.424 556.144, 1107.086 562.141, 1103.409 569.720" stroke="none" fill="#f8f8fa" fill-rule="evenodd"></path><path d="M 550 22.494 C 549.175 22.680, 543.100 23.344, 536.500 23.968 C 498.361 27.578, 462.053 35.117, 419 48.367 C 383.134 59.404, 337.829 79.877, 299.207 102.500 C 282.128 112.504, 259.338 128.326, 235.900 146.449 C 225.593 154.420, 202.359 174.900, 190.894 186.120 C 153.197 223.015, 118.572 267.823, 92.024 314.068 C 83.693 328.580, 68.209 359.743, 61.500 375.500 C 51.387 399.254, 40.544 430.890, 42.290 431.552 C 42.955 431.804, 46.425 432.648, 50 433.428 C 53.575 434.207, 60.775 435.800, 66 436.967 C 71.225 438.134, 77.525 439.508, 80 440.021 C 82.475 440.534, 85.400 441.210, 86.500 441.523 C 88.273 442.029, 88.873 440.941, 91.783 431.957 C 99.872 406.980, 113.931 374.300, 125.965 352.500 C 127.786 349.200, 130.390 344.475, 131.750 342 C 158.957 292.498, 201.678 240.011, 245.500 202.245 C 251.550 197.031, 257.754 191.674, 259.287 190.342 C 271.406 179.805, 311.570 151.744, 325 144.428 C 326.925 143.380, 329.175 142.022, 330 141.411 C 331.586 140.235, 345.173 132.935, 361 124.755 C 371.300 119.431, 397.957 107.901, 410 103.561 C 414.125 102.074, 418.622 100.399, 419.994 99.839 C 434.360 93.972, 476.220 82.731, 499 78.622 C 537.843 71.617, 550.603 70.543, 595 70.543 C 639.397 70.543, 652.127 71.614, 691 78.622 C 714.463 82.851, 754.908 93.727, 770.159 99.909 C 771.447 100.431, 775.875 102.074, 780 103.561 C 792.614 108.107, 819.031 119.588, 830.057 125.316 C 859.946 140.844, 863.772 143.068, 889.500 159.876 C 896.072 164.169, 927.910 187.574, 929 188.913 C 929.275 189.251, 931.975 191.546, 935 194.013 C 938.025 196.480, 942.262 200.074, 944.415 201.999 C 946.568 203.925, 951.068 207.952, 954.415 210.950 C 965.003 220.432, 980.214 236.012, 996.032 253.578 C 999.728 257.681, 1015.331 277.206, 1023.142 287.500 C 1031.356 298.325, 1051.861 329.836, 1055.353 337 C 1055.755 337.825, 1058.344 342.550, 1061.107 347.500 C 1074.224 371.003, 1089.734 406.250, 1097.954 431.240 C 1099.716 436.597, 1101.460 441.165, 1101.829 441.392 C 1102.441 441.769, 1110.729 440.112, 1126.500 436.459 C 1129.800 435.694, 1135.650 434.381, 1139.500 433.540 C 1143.350 432.699, 1147.029 431.810, 1147.675 431.565 C 1148.740 431.162, 1143.239 412.769, 1138.533 401 C 1137.763 399.075, 1135.930 394.350, 1134.458 390.500 C 1117.257 345.489, 1088.820 294.667, 1057.341 252.679 C 1017.758 199.880, 970.039 154.817, 913.473 116.816 C 873.266 89.805, 815.555 62.078, 771 48.367 C 744.108 40.091, 725.987 35.499, 703 31.136 C 688.814 28.443, 681.869 27.380, 655.500 23.865 C 647.382 22.783, 554.092 21.571, 550 22.494 M 560.597 96.582 C 533.055 98.575, 515.996 101.158, 478.144 109.069 C 471.382 110.482, 443.489 118.595, 433.539 122.043 C 399.795 133.735, 364.953 149.875, 336.337 167.071 C 316.981 178.702, 277.869 206.499, 272.500 212.440 C 271.950 213.049, 270.150 214.587, 268.500 215.859 C 253.466 227.445, 224.857 256.600, 203.039 282.571 C 189.300 298.924, 165.837 333.638, 154.761 354 C 138.944 383.076, 127.927 407.832, 118.021 436.560 C 115.226 444.668, 114.412 448.182, 115.274 448.420 C 115.948 448.606, 120.100 449.511, 124.500 450.431 C 128.900 451.350, 135.200 452.714, 138.500 453.462 C 141.800 454.210, 147.650 455.509, 151.500 456.348 C 155.350 457.187, 161.562 458.588, 165.305 459.462 C 172.313 461.097, 174 460.906, 174 458.475 C 174 457.701, 174.634 455.590, 175.408 453.784 C 176.183 451.978, 178.722 445.550, 181.051 439.500 C 192.120 410.745, 208.110 379.708, 224.841 354.500 C 231.252 344.841, 247.166 323.128, 251.593 318 C 252.780 316.625, 256.815 311.900, 260.560 307.500 C 269.330 297.195, 295.195 271.330, 305.500 262.560 C 309.900 258.815, 314.625 254.784, 316 253.601 C 319.839 250.300, 333.749 239.845, 341 234.812 C 353.663 226.021, 361.132 221, 361.546 221 C 361.776 221, 364.785 219.278, 368.232 217.173 C 383.056 208.123, 422.854 188, 425.931 188 C 426.377 188, 429.837 186.678, 433.621 185.062 C 464.483 171.881, 506.744 161.595, 551 156.493 C 569.575 154.352, 620.425 154.352, 639 156.493 C 679.937 161.213, 717.489 169.932, 749 182.033 C 752.025 183.195, 755.850 184.624, 757.500 185.209 C 759.150 185.794, 760.927 186.662, 761.450 187.136 C 761.972 187.611, 762.958 188, 763.641 188 C 764.927 188, 775.260 192.674, 792.500 201.054 C 806.548 207.883, 842.058 228.911, 848.500 234.215 C 849.050 234.668, 854.450 238.709, 860.500 243.194 C 872.585 252.154, 879.640 257.853, 888 265.408 C 948.586 320.156, 986.400 376.504, 1015.441 455.316 C 1016.812 459.037, 1017.589 459.987, 1018.858 459.496 C 1019.761 459.147, 1022.525 458.463, 1025 457.975 C 1027.475 457.488, 1033.775 456.126, 1039 454.948 C 1044.225 453.771, 1050.300 452.422, 1052.500 451.950 C 1054.700 451.478, 1060.743 450.172, 1065.929 449.046 C 1071.116 447.921, 1075.470 447, 1075.606 447 C 1076.401 447, 1064.749 415.035, 1058.950 401.311 C 1053.560 388.553, 1038.470 358.376, 1033.159 349.732 C 1030.871 346.010, 1029 342.787, 1029 342.570 C 1029 341.861, 1016.637 322.666, 1010.589 313.985 C 1004.811 305.691, 988.109 283.519, 983.712 278.304 C 964.904 256.001, 937.949 229.013, 919 213.513 C 916.525 211.488, 913.375 208.874, 912 207.705 C 900.326 197.773, 870.449 176.964, 853.244 166.782 C 800.637 135.649, 743.815 114.295, 685 103.556 C 664.922 99.890, 650.889 98.186, 627 96.512 C 602.022 94.761, 585.515 94.779, 560.597 96.582 M 820.500 408.518 C 804.111 410.546, 787.048 414.706, 775.500 419.488 C 767.578 422.768, 754.688 429.345, 750.008 432.495 C 747.143 434.423, 744.582 436, 744.318 436 C 743.364 436, 734.352 443.609, 727.281 450.385 C 704.608 472.114, 695.505 501.751, 700.523 537.501 C 704.336 564.662, 712.622 582.379, 729.891 600.293 C 744.380 615.322, 761.191 626.806, 786.360 638.866 C 799.471 645.148, 806.678 648.092, 850.500 665.060 C 896.616 682.917, 917.957 700.236, 923.713 724.476 C 932.420 761.136, 905.049 784.028, 852.557 783.990 C 815.930 783.963, 787.446 772.894, 765.141 750.021 C 753.912 738.505, 746.446 725.729, 740.926 708.587 L 737.827 698.960 717.163 699.230 L 696.500 699.500 696.242 760.771 L 695.985 822.041 716.242 821.771 L 736.500 821.500 737.166 810.500 C 737.547 804.191, 738.503 797.925, 739.406 795.806 L 740.980 792.112 747.613 796.142 C 772.490 811.255, 801.530 819.456, 839.122 821.984 C 882.684 824.913, 919.833 814.398, 950.613 790.424 C 972.325 773.514, 984.369 753.995, 990.674 725.500 C 992.894 715.467, 993.167 688.704, 991.148 679 C 987.031 659.213, 978.238 643.150, 963.559 628.600 C 946.450 611.641, 923.773 598.515, 877.150 578.583 C 823.591 555.685, 793.411 538.623, 781.115 524.291 C 772.604 514.370, 768.405 502.119, 769.218 489.575 C 770.954 462.748, 799.293 446.013, 843 446.003 C 867.183 445.998, 883.895 450.647, 902.540 462.566 C 918.165 472.555, 929.216 489.456, 931.945 507.538 C 932.522 511.367, 933.242 515.962, 933.543 517.750 L 934.091 521 954.545 521 L 975 521 975 464 L 975 407 954.500 407 L 934 407 934 411.364 C 934 415.647, 932.379 425.955, 931.579 426.754 C 931.356 426.978, 929.137 426.024, 926.649 424.635 C 920.794 421.367, 910.699 417.250, 900.599 414.012 C 881.820 407.992, 845.103 405.474, 820.500 408.518 M 248 440.500 L 248 458 267.500 458 L 287 458 287 621.978 L 287 785.957 267.750 786.228 L 248.500 786.500 248.227 804.250 L 247.954 822 330.500 822 L 413.046 822 412.773 804.250 L 412.500 786.500 391.750 786.230 L 371 785.959 371 712.980 L 371 640 456 640 L 541 640 541 713 L 541 786 520 786 L 499 786 499 804 L 499 822 580.893 822 C 645.503 822, 662.880 821.736, 663.231 820.750 C 663.619 819.662, 663.543 788.752, 663.148 786.750 C 663.067 786.337, 654.450 786, 644 786 L 625 786 625 622 L 625 458 644.500 458 L 664 458 664 440.500 L 664 423 581.500 423 L 499 423 499 440.500 L 499 458 520 458 L 541 458 541 531 L 541 604 456 604 L 371 604 371 531 L 371 458 392 458 L 413 458 413 440.500 L 413 423 330.500 423 L 248 423 248 440.500 M 1151.894 455.439 C 1151.606 455.727, 1147.800 456.686, 1143.435 457.569 C 1133.561 459.568, 1135.483 459.153, 1094.500 468.149 C 1086.800 469.839, 1078.700 471.606, 1076.500 472.076 C 1047.147 478.341, 1026.738 482.928, 1026.308 483.358 C 1026.015 483.651, 1027.369 492.128, 1029.317 502.196 C 1036.759 540.658, 1036.494 537.236, 1036.466 594.500 C 1036.441 645.084, 1035.991 654.893, 1032.935 671.500 C 1032.328 674.800, 1030.495 684.638, 1028.862 693.363 C 1027.229 702.087, 1026.053 709.387, 1026.250 709.583 C 1026.883 710.216, 1042.284 713.733, 1074.250 720.545 C 1078.237 721.395, 1084.200 722.702, 1087.500 723.451 C 1090.800 724.200, 1097.100 725.579, 1101.500 726.517 C 1105.900 727.454, 1112.200 728.826, 1115.500 729.565 C 1118.800 730.305, 1124.875 731.626, 1129 732.500 C 1133.125 733.374, 1139.200 734.718, 1142.500 735.486 C 1152.405 737.790, 1155.792 738.146, 1156.524 736.960 C 1157.652 735.137, 1160.976 720.711, 1160.988 717.588 C 1160.995 715.986, 1161.633 712.386, 1162.406 709.588 C 1168.457 687.691, 1169.857 674.935, 1172.018 622 C 1173.199 593.066, 1173.038 580.751, 1171.056 548.500 C 1168.841 512.442, 1166.829 498.404, 1160.161 472.500 C 1159.028 468.100, 1157.729 462.475, 1157.273 460 C 1156.646 456.597, 1155.953 455.429, 1154.431 455.208 C 1153.324 455.047, 1152.182 455.151, 1151.894 455.439 M 33.673 460.741 C 32.898 463.359, 31.720 468.875, 31.054 473 C 30.389 477.125, 29.233 482.750, 28.484 485.500 C 27.736 488.250, 26.841 492.075, 26.497 494 C 26.152 495.925, 25.260 500.425, 24.514 504 C 22.417 514.052, 21.127 527.004, 20.480 544.500 C 19.636 567.336, 19.188 573.788, 18.026 579.886 C 16.298 588.958, 16.775 613.978, 19.544 659.500 C 20.866 681.231, 25.421 713.549, 27.689 717.291 C 28.405 718.472, 33 739.187, 33 741.232 C 33 743.631, 34.584 743.506, 49.080 739.969 C 55.911 738.302, 64.200 736.316, 67.500 735.556 C 70.800 734.795, 76.425 733.475, 80 732.621 C 86.900 730.975, 102.951 727.205, 117 723.932 C 121.675 722.843, 128.200 721.301, 131.500 720.506 C 134.800 719.710, 143.575 717.631, 151 715.885 C 158.425 714.139, 164.669 712.570, 164.875 712.397 C 165.330 712.016, 162.475 695.020, 160.441 686 C 156.371 667.947, 154.583 641.238, 154.583 598.500 C 154.583 561.672, 155.820 534.479, 157.971 524 C 158.592 520.975, 159.584 515.800, 160.175 512.500 C 160.765 509.200, 161.888 503.125, 162.669 499 C 165.495 484.079, 165.492 484.335, 162.863 483.756 C 161.563 483.470, 150.825 481.140, 139 478.580 C 84.907 466.867, 81.485 466.121, 76.500 464.948 C 74.300 464.430, 65.075 462.419, 56 460.478 C 46.925 458.537, 38.506 456.732, 37.291 456.466 C 35.385 456.049, 34.890 456.634, 33.673 460.741 M 76.144 569.713 C 70.726 580.528, 68.578 583.889, 66.798 584.336 C 65.527 584.655, 58.876 585.646, 52.019 586.538 C 45.161 587.430, 39.153 588.406, 38.667 588.706 C 38.181 589.006, 42.818 594.300, 48.971 600.471 L 60.159 611.690 59.029 617.595 C 57.394 626.140, 55.038 640.301, 55.017 641.706 C 55.003 642.726, 62.446 639.194, 79.910 629.896 L 83.319 628.081 97.519 635.527 L 111.719 642.973 110.350 634.736 C 109.597 630.206, 108.463 622.999, 107.830 618.721 L 106.680 610.942 117.899 600.330 C 124.070 594.494, 128.754 589.357, 128.309 588.915 C 127.864 588.474, 123.450 587.620, 118.500 587.019 C 113.550 586.418, 106.764 585.460, 103.420 584.890 L 97.339 583.854 91.168 571.177 C 87.774 564.205, 84.588 557.863, 84.088 557.085 C 83.424 556.053, 81.278 559.465, 76.144 569.713 M 1103.409 569.720 C 1099.731 577.299, 1096.615 583.632, 1096.484 583.794 C 1096.353 583.956, 1089.553 585.028, 1081.373 586.177 C 1073.193 587.327, 1066.164 588.566, 1065.752 588.931 C 1065.341 589.296, 1069.954 594.483, 1076.002 600.457 C 1082.051 606.431, 1086.993 611.810, 1086.984 612.409 C 1086.976 613.009, 1085.854 619.800, 1084.491 627.500 C 1083.129 635.200, 1082.011 641.833, 1082.007 642.239 C 1082.003 642.646, 1088.419 639.631, 1096.263 635.539 L 1110.527 628.099 1124.893 635.617 C 1139.140 643.073, 1139.254 643.112, 1138.672 640.318 C 1138.349 638.768, 1137.100 631.635, 1135.897 624.466 L 1133.710 611.432 1144.873 600.534 C 1151.013 594.540, 1155.690 589.293, 1155.268 588.874 C 1154.846 588.455, 1150.450 587.620, 1145.500 587.019 C 1140.550 586.418, 1133.800 585.458, 1130.500 584.886 L 1124.500 583.846 1118.030 570.346 C 1114.471 562.921, 1111.230 556.642, 1110.827 556.393 C 1110.424 556.144, 1107.086 562.141, 1103.409 569.720 M 1016.140 739.138 C 1015.647 740.437, 1014.484 743.750, 1013.554 746.500 C 1003.494 776.246, 985.676 812.151, 966.162 842 C 938.959 883.608, 908.330 916.921, 866.334 950.572 C 840.037 971.644, 801.238 994.340, 766 1009.263 C 669.144 1050.283, 557.275 1054.750, 456.845 1021.609 C 418.704 1009.022, 382.717 991.536, 350.039 969.710 C 338.217 961.815, 321.471 949.733, 320 948.038 C 319.725 947.722, 315.675 944.331, 311 940.505 C 293.214 925.945, 269.420 902.376, 256.500 886.518 C 254.300 883.817, 251.117 880.009, 249.427 878.054 C 240.858 868.145, 223.586 843.342, 212.829 825.500 C 200.275 804.676, 183.580 768.680, 174.857 743.624 C 174.114 741.492, 172.901 739.516, 172.161 739.232 C 170.913 738.753, 162.273 740.370, 149 743.566 C 145.975 744.295, 140.125 745.618, 136 746.507 C 117.733 750.442, 115 751.237, 115 752.610 C 115 753.376, 116.379 757.940, 118.064 762.752 C 119.749 767.563, 121.819 773.525, 122.663 776 C 128.756 793.858, 148.550 835.121, 160.762 855.419 C 183.507 893.225, 205.924 921.880, 237.976 954.122 C 277.689 994.070, 319.317 1024.127, 369.500 1049.086 C 397.371 1062.948, 408.652 1067.668, 437.500 1077.540 C 447.033 1080.802, 466.771 1086.323, 480 1089.427 C 519.308 1098.652, 553.161 1102.500, 595 1102.500 C 627.280 1102.500, 652.919 1100.372, 681 1095.361 C 685.675 1094.527, 690.850 1093.616, 692.500 1093.338 C 704.035 1091.391, 738.875 1082.220, 752.500 1077.544 C 772.114 1070.812, 779.572 1067.960, 795.500 1061.102 C 807.883 1055.771, 843.265 1037.658, 850 1033.203 C 851.375 1032.293, 853.997 1030.731, 855.826 1029.732 C 862.018 1026.349, 895.382 1003.867, 897 1001.987 C 897.275 1001.668, 900.425 999.202, 904 996.507 C 935.452 972.800, 971.917 935.983, 997.110 902.500 C 1021.375 870.249, 1044.378 830.546, 1058.813 796 C 1068.048 773.900, 1075.470 752.667, 1074.680 750.608 C 1074.391 749.856, 1071.533 748.758, 1068.328 748.168 C 1065.122 747.578, 1059.575 746.433, 1056 745.625 C 1042.404 742.551, 1030.335 739.877, 1026 738.979 C 1023.525 738.466, 1020.496 737.761, 1019.268 737.411 C 1017.528 736.916, 1016.838 737.297, 1016.140 739.138 M 78.500 758.402 C 75.750 759.101, 70.013 760.422, 65.750 761.337 C 45.276 765.731, 42.454 766.390, 41.828 766.926 C 40.487 768.071, 51.452 798.922, 61.758 823 C 82.433 871.301, 107.707 913.958, 140.790 956.388 C 145.031 961.826, 149.200 967.001, 150.056 967.888 C 150.911 968.775, 155.691 974.225, 160.678 980 C 170.033 990.834, 194.310 1015.846, 204 1024.632 C 211.522 1031.453, 230.663 1047.817, 235.522 1051.582 C 256.711 1067.998, 284.503 1087.560, 291 1090.631 C 291.825 1091.020, 295.514 1093.288, 299.197 1095.670 C 302.880 1098.051, 306.151 1100, 306.467 1100 C 306.782 1100, 308.897 1101.172, 311.167 1102.605 C 319.939 1108.143, 350.358 1123.091, 368.500 1130.778 C 395.748 1142.325, 416.047 1149.577, 437.500 1155.429 C 440.800 1156.329, 444.850 1157.465, 446.500 1157.955 C 448.150 1158.444, 453.550 1159.789, 458.500 1160.945 C 463.450 1162.101, 469.300 1163.539, 471.500 1164.141 C 473.700 1164.743, 477.750 1165.580, 480.500 1166.002 C 483.250 1166.424, 490.900 1167.712, 497.500 1168.863 C 568.583 1181.270, 645.313 1179.685, 717 1164.330 C 725.755 1162.455, 750.365 1156.325, 754 1155.115 C 755.375 1154.657, 758.975 1153.547, 762 1152.650 C 797.975 1141.974, 848.299 1120.479, 877.500 1103.317 C 880.250 1101.701, 883.175 1100.051, 884 1099.650 C 885.743 1098.804, 887.916 1097.482, 893.598 1093.813 C 895.852 1092.358, 899.227 1090.334, 901.098 1089.317 C 907.614 1085.775, 943.314 1061.149, 945 1059.034 C 945.275 1058.689, 948.425 1056.199, 952 1053.502 C 969.279 1040.463, 1000.320 1011.709, 1020.045 990.471 C 1032.426 977.140, 1052.821 952.523, 1058.978 943.480 C 1060.842 940.741, 1062.672 938.275, 1063.044 938 C 1064.652 936.809, 1085.427 905.292, 1093.035 892.500 C 1107.529 868.129, 1129.479 822.794, 1136.368 803 C 1137.229 800.525, 1138.687 796.475, 1139.607 794 C 1144.727 780.233, 1148.784 767.428, 1148.185 766.926 C 1147.552 766.394, 1142.903 765.303, 1124.500 761.362 C 1120.650 760.538, 1114.995 759.219, 1111.934 758.432 C 1101.509 755.750, 1101.995 755.391, 1097.313 769.250 C 1095.036 775.987, 1091.292 786.225, 1088.991 792 C 1086.690 797.775, 1083.924 804.750, 1082.843 807.500 C 1081.763 810.250, 1076.418 821.568, 1070.965 832.650 C 1049.880 875.507, 1025.049 912.409, 992.041 949.937 C 985.408 957.479, 960.545 982.592, 953.368 989 C 951.211 990.925, 947.429 994.300, 944.961 996.500 C 919.845 1018.896, 882.202 1045.454, 853.500 1061.029 C 820.790 1078.778, 793.789 1090.642, 761.500 1101.451 C 672.549 1131.230, 573.807 1136.541, 483.125 1116.423 C 424.465 1103.409, 375.733 1083.980, 321.197 1051.863 C 298.871 1038.716, 261.628 1011.254, 241.436 993.050 C 238.721 990.603, 228.151 980.253, 217.947 970.050 C 198.639 950.744, 185.664 935.868, 170.370 915.500 C 158.914 900.242, 141.369 874.216, 138.350 868 C 137.949 867.175, 136.401 864.418, 134.910 861.874 C 118.904 834.568, 102.798 799.147, 92.339 768.250 C 88.057 755.600, 88.443 755.875, 78.500 758.402" stroke="none" fill="#142ca4" fill-rule="evenodd"></path></svg><style>@media (prefers-color-scheme: light) { :root { filter: none; } }
</style></svg>